<svg xmlns="http://www.w3.org/2000/svg" version="1.1" xmlns:xlink="http://www.w3.org/1999/xlink" xmlns:svgjs="http://svgjs.dev/svgjs" width="1440" height="560" preserveAspectRatio="none" viewBox="0 0 1440 560"><g mask="url(&quot;#SvgjsMask1022&quot;)" fill="none"><path d="M221.2 0C254 9.57 246.74 38.3 280 40.83C346.14 45.87 361.2 -7.15 420 15.14C491.99 42.43 479.33 79.38 541.58 140C549.33 147.55 549.47 149.33 560 151.48C628.68 165.49 632.88 176.29 700 172.31C729.69 170.55 747.12 166.56 753.62 140C768.21 80.41 716.73 41.27 742.19 0C759.92 -28.73 791.1 0 840 0C910 0 910 0 980 0C1050 0 1050 0 1120 0C1190 0 1190 0 1260 0C1330 0 1330 0 1400 0C1470 0 1500.3 -30.3 1540 0C1570.3 23.14 1562.64 68.8 1540 106.88C1521.02 138.8 1456.76 122.87 1456.76 140C1456.76 157.33 1520.64 143.25 1540 175.81C1562.26 213.25 1540 227.9 1540 280C1540 337.43 1559.02 350.04 1540 394.87C1529.32 420.04 1480.61 404.28 1480.61 420C1480.61 437.69 1527.39 431.97 1540 461.7C1557.08 501.97 1568.88 539.73 1540 560C1498.88 588.88 1470 560 1400 560C1358.3 560 1342.21 584.33 1316.6 560C1272.21 517.83 1283.58 427 1260 427C1237.54 427 1264.32 522.2 1224.53 560C1194.32 588.7 1172.26 560 1120 560C1054.66 560 1050.8 566.83 989.33 560C980.8 559.05 988.52 546.24 980 544.44C913.85 530.46 907.97 523.41 840 528.45C802.97 531.19 806.62 551.75 770 560C736.62 567.52 735 560 700 560C630 560 630 560 560 560C490 560 490 560 420 560C350 560 350 560 280 560C210 560 210 560 140 560C70 560 35 595 0 560C-35 525 0 490 0 420C0 369.6 -15.43 319.2 0 319.2C18.62 319.2 27.43 376.13 68.11 420C97.43 451.62 108.28 470.19 140 470.19C162.44 470.19 166.15 448.69 176.44 420C200.26 353.59 219.93 338.21 208.21 280C201.71 247.75 177.29 241.62 140 239.08C73.18 234.52 37.18 292.11 0 265.8C-32.82 242.57 0 202.9 0 140C0 70 -35 35 0 0C35 -35 70 0 140 0C180.6 0 184 -10.85 221.2 0" stroke="rgba(0, 2, 255, 1)" stroke-width="2"></path><path d="M1120 102.16C1099.14 102.16 1092.57 117.12 1089.57 140C1080.91 206.04 1084.44 213.68 1096.67 280C1099.65 296.18 1107.77 305 1120 305C1133.43 305 1137.23 295.24 1148 280C1195.56 212.74 1244.72 191.1 1236.67 140C1230.72 102.18 1172.69 102.16 1120 102.16" stroke="rgba(0, 2, 255, 1)" stroke-width="2"></path><path d="M840 215.19C818.47 215.19 798.82 249.55 798.82 280C798.82 303.83 818.73 323.75 840 323.75C862.65 323.75 886.67 304.14 886.67 280C886.67 249.86 862.39 215.19 840 215.19" stroke="rgba(0, 2, 255, 1)" stroke-width="2"></path><path d="M151.2 0C216.53 41.74 209.34 60.6 280 89.44C343.74 115.46 354.75 90.26 420 109.73C439.49 115.54 432.32 127.86 449.47 140C502.32 177.42 499.69 190.27 560 208.85C624.95 228.86 638.54 195.06 700 217.18C737.36 230.63 728.6 248.8 757.65 280C798.6 323.96 797.46 367.5 840 367.5C885.3 367.5 933.33 328.28 933.33 280C933.33 219.72 887.89 214.07 840 150.37C835.27 144.07 830.54 147.38 828.09 140C805.61 72.2 785.71 52.09 790.14 0C791.66 -17.91 815.07 0 840 0C910 0 910 0 980 0C1050 0 1050 0 1120 0C1159.04 0 1198.08 -12.34 1198.08 0C1198.08 15.09 1154.16 22.23 1120 54.86C1080.88 92.23 1069.38 90.78 1051.52 140C1028.54 203.35 1019.83 218.55 1038.33 280C1054.07 332.3 1076.77 326.33 1120 367.5C1150.27 396.33 1174.5 383.99 1185.33 420C1203.44 480.24 1200.99 510.45 1177.87 560C1168.33 580.45 1148.93 560 1120 560C1083.84 560 1072.51 580.01 1047.67 560C1002.51 523.62 1029.64 466.55 980 447.22C925.8 426.12 910.7 467.42 840 479.15C770.7 490.65 754.46 466.72 700 493.68C672.8 507.15 702.99 547.53 676.67 560C632.99 580.69 618.34 560 560 560C490 560 490 560 420 560C350 560 350 560 280 560C210 560 210 560 140 560C70 560 39.02 590.98 0 560C-30.98 535.39 -28.17 453.6 0 448.82C41.83 441.72 80.01 543.93 140 536.23C192.2 529.52 187.87 481.46 224.38 420C257.87 363.64 250.81 359.52 280 300.59C285.48 289.52 293.73 290.44 293.73 280C293.73 268.85 291.04 264.23 280 257.42C214.18 216.84 213.35 196.32 140 185.23C73.35 175.15 45.92 229.91 0 215.07C-24.08 207.29 0 177.53 0 140C0 70 -35 35 0 0C35 -35 70 0 140 0C145.6 0 146.53 -2.98 151.2 0" stroke="rgba(0, 2, 255, 1)" stroke-width="2"></path><path d="M1400 100C1350.67 83.96 1327.08 31.46 1327.08 0C1327.08 -18.54 1363.54 0 1400 0C1470 0 1493.17 -23.17 1540 0C1563.17 11.46 1562.8 52.96 1540 69.25C1492.8 102.96 1457.13 118.58 1400 100" stroke="rgba(0, 2, 255, 1)" stroke-width="2"></path><path d="M1218 280C1218 251.24 1230.74 221.67 1260 221.67C1321.74 221.67 1400 251.8 1400 280C1400 307.89 1322.53 333.85 1260 333.85C1231.53 333.85 1218 307.33 1218 280" stroke="rgba(0, 2, 255, 1)" stroke-width="2"></path><path d="M1400 280C1400 246.93 1490.46 216.51 1540 216.51C1560.46 216.51 1540 248.25 1540 280C1540 315 1561.63 350 1540 350C1491.63 350 1400 313.67 1400 280" stroke="rgba(0, 2, 255, 1)" stroke-width="2"></path><path d="M420 403.85C407.29 403.85 396 408.06 396 420C396 448.45 405.43 484.62 420 484.62C435.69 484.62 456.52 446.26 456.52 420C456.52 405.87 437.55 403.85 420 403.85" stroke="rgba(0, 2, 255, 1)" stroke-width="2"></path><path d="M1391.06 560C1391.06 540.36 1381.31 516.32 1400 513.33C1455.78 504.4 1480.07 516.19 1540 536.17C1550.07 539.53 1550.18 558.27 1540 560C1480.18 570.18 1470 560 1400 560C1395.53 560 1391.06 563.7 1391.06 560" stroke="rgba(0, 2, 255, 1)" stroke-width="2"></path><path d="M0 63.64C33.06 63.64 105 112.49 105 140C105 162.84 42.83 164.35 0 164.35C-9.67 164.35 0 152.18 0 140C0 101.82 -19.44 63.64 0 63.64" stroke="rgba(0, 2, 255, 1)" stroke-width="2"></path><path d="M252 140C252 138.39 266.09 138.06 280 138.06C283.98 138.06 287.78 138.48 287.78 140C287.78 141.71 284.31 144.52 280 144.52C266.42 144.52 252 141.62 252 140" stroke="rgba(0, 2, 255, 1)" stroke-width="2"></path><path d="M840 6.36C837.97 6.36 838.08 2.47 838.08 0C838.08 -0.71 839.04 0 840 0C844.38 0 848.75 -1.42 848.75 0C848.75 1.76 843.31 6.36 840 6.36" stroke="rgba(0, 2, 255, 1)" stroke-width="2"></path><path d="M908.37 140C908.37 94.1 951.08 56.76 980 56.76C1003.63 56.76 1013.48 97.14 1013.48 140C1013.48 208.76 1005.12 280 980 280C952.56 280 908.37 205.72 908.37 140" stroke="rgba(0, 2, 255, 1)" stroke-width="2"></path><path d="M1120 7.57C1105.96 7.57 1090.53 1.92 1090.53 0C1090.53 -1.86 1105.26 0 1120 0C1125.39 0 1130.77 -1.7 1130.77 0C1130.77 2.08 1126.08 7.57 1120 7.57" stroke="rgba(0, 2, 255, 1)" stroke-width="2"></path><path d="M1540 31.61C1482.63 31.61 1400 8 1400 0C1400 -7.8 1482.89 -12.89 1540 0C1552.89 2.91 1552.63 31.61 1540 31.61" stroke="rgba(0, 2, 255, 1)" stroke-width="2"></path><path d="M362.35 280C362.35 243.55 381.9 205.28 420 202.63C480.72 198.4 486.73 250.68 560 266.23C626.73 280.39 633.36 256.19 700 262.05C711.59 263.07 716.47 269.11 716.47 280C716.47 306.09 723.01 327.17 700 336C644.78 357.17 630 339.86 560 340C490 340.13 482.68 355.57 420 336.54C383.86 325.57 362.35 310.5 362.35 280" stroke="rgba(0, 2, 255, 1)" stroke-width="2"></path><path d="M1489.74 280C1489.74 268.13 1522.21 257.21 1540 257.21C1547.34 257.21 1540 268.61 1540 280C1540 292.57 1547.77 305.13 1540 305.13C1522.64 305.13 1489.74 292.09 1489.74 280" stroke="rgba(0, 2, 255, 1)" stroke-width="2"></path><path d="M272.33 420C272.33 411.26 274.77 403.53 280 403.53C286.61 403.53 296 410.08 296 420C296 439.85 286.06 463.08 280 463.08C274.23 463.08 272.33 441.04 272.33 420" stroke="rgba(0, 2, 255, 1)" stroke-width="2"></path><path d="M805 420C805 415.37 822.58 411.25 840 411.25C855.29 411.25 870.43 415.37 870.43 420C870.43 424.68 855.31 429.86 840 429.86C822.6 429.86 805 424.67 805 420" stroke="rgba(0, 2, 255, 1)" stroke-width="2"></path><path d="M0 551.76C5.3 551.76 15.56 557.81 15.56 560C15.56 561.93 5.09 562.69 0 560C-2.69 558.57 -2.48 551.76 0 551.76" stroke="rgba(0, 2, 255, 1)" stroke-width="2"></path><path d="M486.32 560C486.32 528.62 527.08 460 560 460C589.85 460 611.85 525.76 611.85 560C611.85 575.76 585.92 560 560 560C523.16 560 486.32 578.62 486.32 560" stroke="rgba(0, 2, 255, 1)" stroke-width="2"></path><path d="M1106 560C1106 523.93 1113.68 476 1120 476C1126.28 476 1131.2 522.9 1131.2 560C1131.2 564.9 1125.6 560 1120 560C1113 560 1106 565.93 1106 560" stroke="rgba(0, 2, 255, 1)" stroke-width="2"></path></g><defs><mask id="SvgjsMask1022"><rect width="1440" height="560" fill="#ffffff"></rect></mask></defs></svg>